<?xml version="1.0" standalone="no"?>
<!DOCTYPE svg PUBLIC "-//W3C//DTD SVG 20010904//EN"
 "http://www.w3.org/TR/2001/REC-SVG-20010904/DTD/svg10.dtd">
<svg version="1.0" xmlns="http://www.w3.org/2000/svg"
 width="123.000000pt" height="123.000000pt" viewBox="0 0 123.000000 123.000000"
 preserveAspectRatio="xMidYMid meet">
<metadata>
Created by potrace 1.11, written by Peter Selinger 2001-2013
</metadata>
<g transform="translate(0.000000,123.000000) scale(0.100000,-0.100000)"
fill="#000000" stroke="none">
<path d="M490 1086 c-137 -39 -244 -127 -305 -251 -68 -137 -72 -294 -9 -430
46 -100 127 -180 233 -232 65 -31 86 -37 167 -41 135 -7 219 19 324 97 181
135 237 391 134 609 -49 104 -178 210 -299 246 -55 17 -189 18 -245 2z m237
-186 c98 -43 164 -156 164 -279 0 -83 -5 -103 -36 -168 -93 -189 -367 -202
-481 -22 -99 158 -44 385 114 468 60 32 168 32 239 1z"/>
</g>
</svg>
